PathFileType	4	(X/Y/Z)	C:/Users/opensim2020/Desktop/walking_exp_matlab/subject03_walking07_straight_02.trc																																																																																																																																								
DataRate	CameraRate	NumFrames	NumMarkers	Units	OrigDataRate	OrigDataStartFrame	OrigNumFrames																																																																																																																																				
100	100	4	46	mm	100	1561	252																																																																																																																																				
Frame#	Time	LFHD			RFHD			LBHD			RBHD			C7			T10			CLAV			STRN			RBAK			LSHO			LUPA			LELB			LFRM			LWRA			LWRB			LFIN			RSHO			RUPA			RELB			RFRM			RWRA			RWRB			RFIN			LASI			RASI			LPSI			RPSI			LTHI			LKNE			LTIB			LANK			LHEE			LTOE			RTHI			RKNE			RTIB			RANK			RHEE			RTOE			*39			*40			*41			*42			*43			*44			*45		
		X1	Y1	Z1	X2	Y2	Z2	X3	Y3	Z3	X4	Y4	Z4	X5	Y5	Z5	X6	Y6	Z6	X7	Y7	Z7	X8	Y8	Z8	X9	Y9	Z9	X10	Y10	Z10	X11	Y11	Z11	X12	Y12	Z12	X13	Y13	Z13	X14	Y14	Z14	X15	Y15	Z15	X16	Y16	Z16	X17	Y17	Z17	X18	Y18	Z18	X19	Y19	Z19	X20	Y20	Z20	X21	Y21	Z21	X22	Y22	Z22	X23	Y23	Z23	X24	Y24	Z24	X25	Y25	Z25	X26	Y26	Z26	X27	Y27	Z27	X28	Y28	Z28	X29	Y29	Z29	X30	Y30	Z30	X31	Y31	Z31	X32	Y32	Z32	X33	Y33	Z33	X34	Y34	Z34	X35	Y35	Z35	X36	Y36	Z36	X37	Y37	Z37	X38	Y38	Z38	X39	Y39	Z39	X40	Y40	Z40	X41	Y41	Z41	X42	Y42	Z42	X43	Y43	Z43	X44	Y44	Z44	X45	Y45	Z45	X46	Y46	Z46
																																																																																																																																											
95	0.94	-203.08476	1594.08337	946.13745	-212.42511	1603.03052	1078.40295	-334.95959	1562.93762	942.39801	-339.16391	1570.98157	1073.12207	-379.90561	1403.42712	1006.43024	-423.02927	1089.96057	1007.46271	-261.45297	1322.37085	1009.91449	-223.63976	1156.79919	1008.75781	-439.73404	1230.55359	1106.29395	-304.02243	1357.69434	851.2912	-339.25858	1159.3905	784.78448	-349.75665	1036.45886	774.45276	-346.22906	906.005	773.41406	-348.35641	786.49713	801.4668	-371.39005	795.80682	751.41144	-374.46948	710.50513	761.24969	-307.15549	1350.66797	1167.45593	-266.72095	1138.51111	1247.65601	-224.50142	1035.41907	1263.42468	-162.40802	914.00433	1263.99255	-100.8194	838.44226	1227.18945	-127.51131	819.87354	1269.69519	-75.66541	768.10687	1259.79053	-247.83458	924.55646	902.92285	-267.34573	925.39941	1140.54248	-414.66107	941.23175	937.42035	-424.1579	955.48871	1086.67444	-242.00536	623.56763	854.00916	-173.73198	461.45172	899.33899	-155.44366	273.49048	891.76874	-91.64158	69.7514	922.44971	-118.28537	24.15622	960.26154	60.87421	74.67285	944.50464	-365.91263	637.40363	1171.91663	-389.66885	458.5051	1135.54846	-487.57581	290.259	1132.93774	-575.36731	92.13602	1079.67114	-624.23962	71.51253	1027.24109	-443.34537	30.00958	1068.03259	NaN	NaN	NaN	NaN	NaN	NaN	NaN	NaN	NaN	NaN	NaN	NaN	NaN	NaN	NaN	NaN	NaN	NaN	NaN	NaN	NaN
96	0.95	-193.1754	1593.75183	945.30658	-202.55414	1602.62842	1077.81238	-324.90814	1562.44666	941.43994	-329.29111	1570.40747	1072.11816	-369.70523	1402.86951	1005.00641	-412.38312	1089.26172	1006.2926	-251.16609	1321.92749	1008.95581	-213.12921	1156.43164	1008.13	-429.7095	1229.94458	1104.93713	-293.35193	1357.07544	850.23181	-328.22974	1158.61621	783.8703	-338.98535	1035.71826	773.73804	-335.80087	905.26282	772.64819	-338.63565	785.58435	800.88611	-361.38226	795.15216	750.58026	-365.07343	709.8324	760.51331	-297.31686	1350.14441	1166.375	-256.60022	1137.85706	1245.8667	-214.20743	1034.8717	1261.5824	-152.50253	913.13159	1262.41138	-91.21909	837.21985	1225.80066	-118.03969	818.92651	1268.35327	-66.44086	766.81531	1258.66931	-236.53822	923.92169	902.53564	-257.22897	924.78723	1140.18274	-403.60397	940.84247	936.22528	-413.6499	954.9726	1085.43604	-231.01125	623.26428	854.17395	-163.71974	460.68622	899.31226	-148.98706	271.60339	892.2099	-88.67887	67.07719	923.71259	-116.21088	23.37414	961.50854	63.74295	69.39995	945.58307	-357.02063	637.14886	1171.67163	-381.48215	458.23276	1135.74634	-482.17722	291.38223	1133.19714	-573.70825	94.81383	1080.04675	-622.95636	75.24147	1027.77063	-443.04977	29.97263	1068.17834	NaN	NaN	NaN	NaN	NaN	NaN	NaN	NaN	NaN	NaN	NaN	NaN	NaN	NaN	NaN	NaN	NaN	NaN	NaN	NaN	NaN
97	0.96	-183.26085	1593.59607	944.43341	-192.78951	1602.30042	1076.96533	-315.03067	1562.12439	940.42938	-319.51157	1569.90564	1071.04749	-359.52423	1402.33472	1003.62061	-401.51654	1088.64575	1005.02338	-240.79395	1321.6521	1007.96606	-202.3692	1156.20178	1007.4353	-419.55127	1229.38147	1103.50256	-282.61298	1356.6134	849.03973	-317.00879	1157.93774	782.89044	-327.70853	1035.12891	772.77002	-324.92874	904.61609	771.9516	-328.50751	784.61688	800.69452	-350.73743	794.5412	749.77283	-354.99661	709.2453	759.82452	-287.47491	1349.77734	1165.255	-246.75467	1137.28687	1244.15332	-204.14146	1034.2644	1259.65417	-143.01131	912.19916	1260.77405	-82.05137	835.74988	1224.52637	-108.94501	817.76794	1267.12549	-57.87421	765.203	1257.55835	-224.9241	923.38885	902.06628	-246.86922	924.24261	1139.74048	-392.2291	940.60565	934.99194	-402.87363	954.59143	1084.12427	-219.57103	623.23236	854.18207	-154.15781	459.74963	899.21997	-143.78604	269.46606	892.88062	-86.90125	64.84551	924.85242	-116.07685	22.35633	962.31354	65.55704	61.25929	947.39636	-347.84659	636.88171	1171.37109	-372.85925	457.92059	1136.0144	-476.40842	292.49448	1133.59106	-571.83057	97.8075	1080.83728	-621.48676	79.35113	1028.41016	-442.68094	29.91353	1068.34949	NaN	NaN	NaN	NaN	NaN	NaN	NaN	NaN	NaN	NaN	NaN	NaN	NaN	NaN	NaN	NaN	NaN	NaN	NaN	NaN	NaN
98	0.97	-173.13792	1593.47363	943.58899	-182.91757	1602.20447	1076.1134	-304.83249	1561.72644	939.30701	-309.63663	1569.57092	1070.03076	-349.55859	1402.05334	1002.14136	-390.36398	1088.08667	1003.53619	-230.37688	1321.49768	1006.88068	-191.61099	1156.25378	1006.6712	-409.4006	1229.02332	1101.84009	-271.74536	1356.32434	847.8476	-305.49985	1157.41565	781.84717	-316.24487	1034.46655	772.01135	-313.74432	904.06769	771.28156	-317.4075	784.31732	799.74725	-339.60608	794.0329	749.02734	-344.27066	708.72534	759.22131	-277.58505	1349.50732	1164.04309	-237.10405	1136.71716	1242.53967	-194.36775	1033.57764	1257.75562	-133.87466	911.1745	1259.20093	-73.32703	834.14374	1223.23047	-100.46369	816.59021	1265.81091	-49.85411	763.40131	1256.56909	-213.22606	923.20221	901.51501	-236.16794	923.77783	1139.31958	-380.87448	940.67908	933.59015	-392.05008	954.45862	1082.84106	-208.08963	623.7406	854.36713	-145.88959	458.84811	899.18445	-138.73352	267.93399	894.3269	-83.03974	64.40941	924.89075	-113.88224	24.29234	962.71307	69.53281	50.80032	949.39453	-338.22568	636.53125	1171.06396	-363.66705	457.53329	1136.18701	-470.30334	293.77872	1133.9718	-569.68988	101.09176	1081.55969	-619.69501	83.83535	1029.30029	-442.26431	29.87169	1068.53479	NaN	NaN	NaN	NaN	NaN	NaN	NaN	NaN	NaN	NaN	NaN	NaN	NaN	NaN	NaN	NaN	NaN	NaN	NaN	NaN	NaN
